<svg xmlns="http://www.w3.org/2000/svg" version="1.1" viewBox="0.00 0.00 73.00 72.00" width="73.00" height="72.00">
<path fill="#e28b89" d="&#10;  M 22.78 46.01&#10;  A 0.37 0.37 0.0 0 0 23.34 45.70&#10;  Q 23.43 32.58 23.28 19.04&#10;  Q 23.17 9.46 32.64 7.57&#10;  Q 44.18 5.26 55.87 2.61&#10;  Q 60.37 1.59 63.45 2.56&#10;  C 67.94 3.97 70.09 8.09 70.07 12.62&#10;  Q 69.98 31.84 70.06 50.05&#10;  C 70.11 60.10 59.81 66.46 51.12 61.49&#10;  Q 45.71 58.38 44.91 52.06&#10;  C 43.73 42.73 52.66 35.96 61.56 38.67&#10;  C 62.53 38.97 63.59 39.58 64.39 40.19&#10;  Q 65.23 40.84 65.23 39.77&#10;  L 65.24 20.76&#10;  A 0.39 0.39 0.0 0 0 64.76 20.38&#10;  L 28.72 28.21&#10;  Q 28.25 28.31 28.24 28.79&#10;  Q 28.11 40.04 28.32 51.75&#10;  Q 28.44 58.74 26.90 61.69&#10;  C 23.11 68.97 13.65 71.67 7.26 66.04&#10;  C -4.44 55.73 9.57 37.57 22.78 46.01&#10;  Z&#10;  M 28.81 23.39&#10;  L 64.71 15.55&#10;  Q 65.36 15.41 65.29 14.75&#10;  C 65.10 12.86 65.66 11.15 64.61 9.41&#10;  Q 62.63 6.08 58.53 6.97&#10;  Q 45.98 9.70 34.21 12.15&#10;  C 27.08 13.63 28.21 17.05 28.24 22.94&#10;  Q 28.25 23.52 28.81 23.39&#10;  Z&#10;  M 65.21 50.58&#10;  A 7.77 7.77 0.0 0 0 57.44 42.81&#10;  A 7.77 7.77 0.0 0 0 49.67 50.58&#10;  A 7.77 7.77 0.0 0 0 57.44 58.35&#10;  A 7.77 7.77 0.0 0 0 65.21 50.58&#10;  Z&#10;  M 23.35 56.41&#10;  A 7.77 7.77 0.0 0 0 15.58 48.64&#10;  A 7.77 7.77 0.0 0 0 7.81 56.41&#10;  A 7.77 7.77 0.0 0 0 15.58 64.18&#10;  A 7.77 7.77 0.0 0 0 23.35 56.41&#10;  Z"/>
</svg>