<svg xmlns="http://www.w3.org/2000/svg" version="1.1" viewBox="0.00 0.00 72.00 72.00" width="72.00" height="72.00">
<path fill="#e28b89" d="&#10;  M 18.82 37.21&#10;  C 11.35 41.49 6.51 48.07 7.32 56.71&#10;  C 7.62 59.88 9.95 61.03 12.83 61.30&#10;  Q 14.52 61.45 14.66 63.14&#10;  Q 14.89 65.70 12.33 65.67&#10;  C 4.62 65.59 1.94 58.81 2.95 52.11&#10;  Q 4.69 40.63 15.11 34.25&#10;  Q 15.61 33.95 15.30 33.46&#10;  C 14.64 32.42 13.75 31.52 13.17 30.45&#10;  C 4.91 15.19 20.47 -2.20 36.38 5.37&#10;  C 47.25 10.55 50.18 24.04 42.34 33.33&#10;  A 0.47 0.47 0.0 0 0 42.45 34.03&#10;  Q 54.16 41.34 54.86 54.40&#10;  C 55.19 60.58 51.47 65.90 44.75 65.62&#10;  A 2.12 2.11 84.2 0 1 42.78 64.01&#10;  C 42.02 60.86 46.32 61.40 47.82 60.48&#10;  Q 50.40 58.89 50.37 55.63&#10;  Q 50.24 43.19 38.96 37.13&#10;  Q 38.41 36.82 37.85 37.13&#10;  Q 29.03 42.06 19.75 37.19&#10;  Q 19.28 36.94 18.82 37.21&#10;  Z&#10;  M 42.28 21.59&#10;  A 13.50 13.50 0.0 0 0 28.78 8.09&#10;  A 13.50 13.50 0.0 0 0 15.28 21.59&#10;  A 13.50 13.50 0.0 0 0 28.78 35.09&#10;  A 13.50 13.50 0.0 0 0 42.28 21.59&#10;  Z"/>
<path fill="#e28b89" d="&#10;  M 56.25 33.97&#10;  A 0.77 0.76 36.0 0 0 56.44 35.12&#10;  Q 67.33 41.65 69.13 54.25&#10;  C 69.43 56.37 69.24 65.27 65.04 63.60&#10;  C 63.19 62.86 63.75 60.80 64.44 59.47&#10;  A 2.99 2.96 -30.2 0 0 64.77 58.24&#10;  Q 65.15 47.35 56.55 40.64&#10;  C 54.48 39.02 51.52 38.01 51.30 34.88&#10;  Q 51.18 33.22 52.36 31.83&#10;  C 56.98 26.37 58.74 19.84 53.62 13.97&#10;  C 52.17 12.31 50.06 11.78 48.30 10.55&#10;  Q 47.93 10.29 47.81 9.85&#10;  Q 47.50 8.70 48.23 7.78&#10;  C 49.47 6.19 51.91 7.21 53.28 8.07&#10;  C 62.87 14.13 63.49 25.53 56.25 33.97&#10;  Z"/>
</svg>