<svg xmlns="http://www.w3.org/2000/svg" version="1.1" viewBox="0.00 0.00 71.00 72.00" width="71.00" height="72.00">
<path fill="#e28b89" d="&#10;  M 38.47 19.54&#10;  C 36.93 14.81 35.19 10.19 38.74 5.89&#10;  C 43.27 0.41 50.47 1.23 55.46 5.40&#10;  A 2.34 2.34 0.0 0 1 56.04 8.27&#10;  Q 55.43 9.47 54.14 9.64&#10;  Q 53.62 9.71 53.17 9.44&#10;  C 49.66 7.41 45.05 4.65 42.10 9.46&#10;  C 40.64 11.86 42.52 16.01 43.05 18.68&#10;  A 0.89 0.89 0.0 0 0 43.87 19.39&#10;  C 57.19 20.18 67.10 31.68 66.01 45.25&#10;  C 64.47 64.32 44.56 74.77 27.30 69.74&#10;  C 9.18 64.46 -0.15 44.08 6.71 26.81&#10;  Q 11.65 14.38 25.18 8.51&#10;  A 2.21 2.20 44.3 0 1 26.89 8.49&#10;  Q 28.38 9.10 28.64 10.22&#10;  Q 29.07 12.10 27.30 12.85&#10;  Q 15.40 17.89 11.18 28.63&#10;  C 7.51 37.98 9.24 48.52 15.52 56.24&#10;  C 23.73 66.34 37.18 68.91 48.75 63.07&#10;  C 60.84 56.97 65.70 41.17 56.42 30.47&#10;  Q 52.08 25.46 45.41 24.39&#10;  A 0.42 0.42 0.0 0 0 44.93 24.91&#10;  C 46.04 29.52 48.52 35.47 48.12 39.95&#10;  C 47.16 50.61 33.08 55.00 26.52 45.86&#10;  C 22.49 40.26 23.09 32.15 27.21 26.75&#10;  Q 30.87 21.94 38.06 20.26&#10;  Q 38.66 20.12 38.47 19.54&#10;  Z&#10;  M 42.63 34.71&#10;  C 41.64 31.57 40.84 28.40 39.99 25.21&#10;  A 0.64 0.64 0.0 0 0 39.23 24.75&#10;  C 31.75 26.50 26.28 33.48 29.48 41.28&#10;  C 30.91 44.79 34.71 46.96 38.41 45.57&#10;  C 43.34 43.71 44.08 39.31 42.63 34.71&#10;  Z"/>
</svg>